<?xml version="1.0" encoding="UTF-8" standalone="no"?>
<!-- Created with Inkscape (http://www.inkscape.org/) -->
<svg
   xmlns:dc="http://purl.org/dc/elements/1.1/"
   xmlns:cc="http://web.resource.org/cc/"
   xmlns:rdf="http://www.w3.org/1999/02/22-rdf-syntax-ns#"
   xmlns:svg="http://www.w3.org/2000/svg"
   xmlns="http://www.w3.org/2000/svg"
   xmlns:sodipodi="http://sodipodi.sourceforge.net/DTD/sodipodi-0.dtd"
   xmlns:inkscape="http://www.inkscape.org/namespaces/inkscape"
   width="300"
   height="300"
   id="svg19975"
   sodipodi:version="0.32"
   inkscape:version="0.44"
   version="1.0"
   sodipodi:docbase="D:\Tee-Shirt\Clipards\alien_et_compagnie"
   sodipodi:docname="logo003.svg">
  <defs
     id="defs19977" />
  <sodipodi:namedview
     id="base"
     pagecolor="#ffffff"
     bordercolor="#666666"
     borderopacity="1.0"
     inkscape:pageopacity="0.0"
     inkscape:pageshadow="2"
     inkscape:zoom="1.6129879"
     inkscape:cx="150.32782"
     inkscape:cy="147.5043"
     inkscape:document-units="px"
     inkscape:current-layer="layer1"
     height="300px"
     width="300px"
     inkscape:window-width="1024"
     inkscape:window-height="749"
     inkscape:window-x="-4"
     inkscape:window-y="-4" />
  <metadata
     id="metadata19980">
    <rdf:RDF>
      <cc:Work
         rdf:about="">
        <dc:format>image/svg+xml</dc:format>
        <dc:type
           rdf:resource="http://purl.org/dc/dcmitype/StillImage" />
      </cc:Work>
    </rdf:RDF>
  </metadata>
  <g
     inkscape:label="Calque 1"
     inkscape:groupmode="layer"
     id="layer1">
    <path
       style="opacity:1;color:black;fill:black;fill-opacity:1;fill-rule:nonzero;stroke:black;stroke-width:0.68481332;stroke-linecap:butt;stroke-linejoin:miter;marker:none;marker-start:none;marker-mid:none;marker-end:none;stroke-miterlimit:4;stroke-dasharray:none;stroke-dashoffset:0;stroke-opacity:1;visibility:visible;display:inline;overflow:visible"
       d="M 14.271465,31.405959 C 14.271465,111.94382 14.271465,192.4817 14.271465,273.01957 C 138.31401,273.01957 32.211331,273.58544 156.25387,273.58544 C 156.25387,193.04756 156.25387,112.50969 156.25387,31.971823 C 32.211331,31.971823 138.31401,31.405959 14.271465,31.405959 z M 74.935533,53.706657 C 83.031705,67.453681 82.238856,92.007519 114.32965,81.26036 C 124.69422,86.981388 142.67452,97.654793 124.18837,106.27555 C 121.45292,108.20062 119.98301,108.79634 114.51086,107.3815 C 90.259314,96.103131 115.33681,121.87916 115.80867,128.10399 C 118.6298,142.47768 138.62139,145.86078 142.02644,129.9861 C 158.61232,105.80126 181.85865,81.886719 214.20913,76.112521 C 224.18695,77.70288 249.76796,41.735894 231.72779,70.789358 C 232.38315,79.133439 254.482,74.311311 262.57407,81.79103 C 272.35793,87.839723 294.2498,96.345713 283.47164,108.77715 C 279.63279,114.37716 277.15243,128.5309 271.60091,116.47218 C 259.61408,104.41647 240.99725,95.966864 222.93927,97.163368 C 203.29975,102.25069 199.09884,123.30084 190.66617,137.69928 C 182.19682,157.53101 177.64088,178.46244 173.10021,199.24674 C 197.44631,204.81623 224.11452,208.86954 248.23367,200.28957 C 242.5509,190.94326 223.16773,189.66742 211.36385,185.88282 C 193.63595,185.07326 207.11712,163.17267 211.16262,159.37367 C 229.91389,167.09263 250.2602,171.25087 268.6065,179.82603 C 269.99147,196.59797 261.53461,215.80055 242.92532,222.02804 C 220.63794,229.94428 196.16866,225.1978 173.3952,222.40372 C 158.59544,224.35743 169.8127,248.59178 152.70343,249.03038 C 142.32504,243.49739 144.97563,215.57338 128.11064,230.57483 C 105.0458,237.58519 82.796456,224.2737 64.535472,212.9567 C 57.80089,206.93595 65.352915,191.11531 71.594207,188.97179 C 87.324864,201.11328 108.1661,213.69809 129.93212,208.79454 C 124.35697,198.11046 119.22317,175.68909 110.0926,163.52658 C 90.267396,156.2278 63.753731,162.04136 48.617199,145.69725 C 38.502761,130.92632 35.321139,120.17252 42.167417,106.24831 C 48.052525,94.278964 83.992689,87.078594 60.716588,68.792073 C 67.837525,59.889953 69.082393,62.392025 74.935533,53.706657 z M 268.63655,179.83959 C 267.67276,179.994 268.73786,182.06803 268.63655,179.83959 z M 203.31859,99.161672 C 176.04475,105.60514 156.9682,126.16171 141.56015,146.21589 C 157.66768,157.13919 162.17386,177.51509 157.37524,194.44916 C 177.09219,200.40474 170.44387,179.74265 177.84864,160.45805 C 185.73746,139.91281 191.99628,118.53954 203.31859,99.161672 z M 84.172265,103.48491 C 67.393165,98.207834 44.267082,120.66588 65.936669,129.51529 C 75.412595,131.69319 96.42227,143.55017 100.14046,133.39131 C 95.588633,123.10459 90.039201,113.20476 84.172265,103.48491 z M 132.51867,168.65879 C 131.71241,175.22714 150.68513,197.11389 142.93652,179.91801 C 140.65936,175.41187 136.96683,171.53787 132.51867,168.65879 z M 156.84957,218.51837 C 157.62505,229.79884 167.66894,220.25123 156.84957,218.51837 z "
       id="rect20877"
       sodipodi:nodetypes="ccccccccccccccccccccccccccccccccscccccccscccccccccc" />
  </g>
</svg>
